# xmcd
#
# Track frame offsets:
#	150
#	14903
#	34461
#	52831
#	70445
#	85657
#	104459
#	122451
#	140983
#	155223
#	174430
#	190452
#	207202
#	223412
#	236410
#	251433
#	269371
#	284583
#	302980
#	320351
# 
# Disc length: 4437 seconds
# 
# Revision: 1
# Processed by: cddbd v1.5PL3 Copyright (c) Steve Scherf et al.
# Submitted via: Advanced CD Ripper Pro
#
DISCID=3d115314
DTITLE=Zeze di Camargo e Luciano - As 20 Mais
DYEAR=2000
DGENRE=Country
TTITLE0=Zeze di camargo E Luciano - As 20 mais - Menina veneno
TTITLE1=Zeze di camargo E Luciano - As 20 mais -Voce vai viver
TTITLE2=Zeze di camargo E Luciano - As 20 mais -Deve ser amor
TTITLE3=Zeze di camargo E Luciano - As 20 mais -Salva meu coracao
TTITLE4=Zeze di camargo E Luciano - As 20 mais -Faz mais uma vez comigo
TTITLE5=Zeze di camargo E Luciano - As 20 mais -Preciso de um tempo
TTITLE6=Zeze di camargo E Luciano - As 20 mais -Vem ficar comigo
TTITLE7=Zeze di camargo E Luciano - As 20 mais -Aferro e fogo
TTITLE8=Zeze di camargo E Luciano - As 20 mais -Pao de mel
TTITLE9=Zeze di camargo E Luciano - As 20 mais -Tanto pra dizer adeus
TTITLE10=Zeze di camargo E Luciano - As 20 mais -Nao da pra esperar
TTITLE11=Zeze di camargo E Luciano - As 20 mais -Como um anjo
TTITLE12=Zeze di camargo E Luciano - As 20 mais -Liberdade Liberdade
TTITLE13=Zeze di camargo E Luciano - As 20 mais -O Amor deixou agente
TTITLE14=Zeze di camargo E Luciano - As 20 mais -O que e que eu faco
TTITLE15=Zeze di camargo E Luciano - As 20 mais -Doce paixao
TTITLE16=Zeze di camargo E Luciano - As 20 mais -Eu nasci pra amar voce
TTITLE17=Zeze di camargo E Luciano - As 20 mais -Ainda sou o mesmo homem
TTITLE18=Zeze di camargo E Luciano - As 20 mais -Foi a primeira vez
TTITLE19=Zeze di camargo E Luciano - As 20 mais -mexe que e bom
EXTD=Fernandinhoo Borges
EXTT0=
EXTT1=
EXTT2=
EXTT3=
EXTT4=
EXTT5=
EXTT6=
EXTT7=
EXTT8=
EXTT9=
EXTT10=
EXTT11=
EXTT12=
EXTT13=
EXTT14=
EXTT15=
EXTT16=
EXTT17=
EXTT18=
EXTT19=
PLAYORDER=
